<svg xmlns="http://www.w3.org/2000/svg" xmlns:xlink="http://www.w3.org/1999/xlink" preserveAspectRatio="xMidYMid" width="23.844" height="23.91" viewBox="0 0 23.844 23.91">
  <defs>
    <style>
      .cls-1 {
        fill: #808080;
        fill-rule: evenodd;
      }
    </style>
  </defs>
  <path d="M23.500,13.672 C23.309,13.848 23.069,13.934 22.830,13.934 C22.561,13.934 22.294,13.826 22.098,13.611 L21.838,13.326 L21.838,21.908 C21.838,23.006 20.948,23.901 19.855,23.901 L15.888,23.901 C15.341,23.901 14.897,23.454 14.897,22.904 C14.897,22.777 14.926,22.657 14.969,22.545 L14.969,15.910 L8.947,15.928 L8.947,22.904 C8.947,23.454 8.503,23.901 7.956,23.901 L3.989,23.901 C2.896,23.901 2.006,23.006 2.006,21.908 L2.006,13.326 L1.746,13.611 C1.376,14.017 0.748,14.044 0.345,13.672 C-0.059,13.301 -0.086,12.670 0.284,12.264 L11.191,0.305 C11.567,-0.106 12.277,-0.106 12.653,0.305 L23.560,12.264 C23.931,12.670 23.903,13.301 23.500,13.672 ZM19.969,11.277 L11.922,2.454 L3.989,11.151 L3.989,21.908 L6.964,21.908 L6.964,15.928 C6.964,14.829 7.854,13.934 8.947,13.934 L14.897,13.934 C15.990,13.934 16.880,14.829 16.880,15.928 L16.880,21.908 L19.969,21.910 L19.969,11.277 Z" class="cls-1"/>
</svg>
