<svg version="1.1" class="logo-svg" xmlns="http://www.w3.org/2000/svg" x="0px" y="0px" viewBox="0 0 161 41" enable-background="new 0 0 161 41" xml:space="preserve"><defs><linearGradient class="linear-gradient" id="a" x1="14.812%" x2="143.27%" y1="0%" y2="150.713%"><stop offset="0%" stop-color="#6C07AE"></stop><stop offset="100%" stop-color="#01AEDF"></stop></linearGradient></defs><g fill="url(#a)"><path class="mask" fill="url(#a)" d="M55.7,14.2V5.8h24.7v8.4L67.2,26.4h13.1v8.2H55.7v-8.2l12-12.2H55.7z M106.2,5.8v8.4 L93.3,26.4h12.9v8.2H81.4v-8.2l12-12.2h-12V5.8H106.2z M13.7,0h11v15c1.9-5.8,6.8-9.7,13-9.7c3.8,0,6.6,1.4,8.2,4.1H46l0.4-3.7h8.1 v28.9h-8.1l-0.3-3.4H46c-1.7,2.7-4.4,4.1-8.2,4.1c-6.3,0-11.3-4-13.1-9.9C24,34.7,17,41.1,6.7,41.1H0v-9.9h6.7c4.2,0,7-4.1,7-8.4V0 z M32.7,20.3c0,3.3,2.8,6.1,6.1,6.1c3.3,0,6.1-2.8,6.1-6.1s-2.8-6.1-6.1-6.1C35.4,14.2,32.7,17,32.7,20.3z"></path><g id="Group-18" transform="translate(107.000000, 5.116800)" opacity="0.6"><polygon fill="#FFFFFF" points="17,11.5 8.6,11.5 8.6,0.7 0.4,0.7 0.4,29.6 8.6,29.6 8.6,19.1 17,19.1 17,29.6 25.1,29.6 25.1,0.7 17,0.7"></polygon><path id="Fill-12" fill="#FFFFFF" d="M38.8,13.7L38.8,13.7C38.8,13.7,38.8,13.7,38.8,13.7c-0.1,0-0.1,0-0.1,0h-4.2V7h4.3v0 c1.6,0,2.8,1.5,2.8,3.3C41.7,12.2,40.4,13.6,38.8,13.7 M49.9,9.6c0-4.9-3.7-8.9-9-8.9h-6.5v0h-8.2v28.9h8.2v-9.7h3.3l5,9.7h9.1 L45.6,17C48.4,15.4,49.9,12.8,49.9,9.6"></path><path id="Fill-14" fill="#FFFFFF" d="M49.6,0.7C49.6,0.7,49.5,0.7,49.6,0.7l-0.1,0.5c0,0,0,0.1,0.1,0.1h0.5v1.9c0,0,0,0.1,0.1,0.1 h0.4c0,0,0.1,0,0.1-0.1V1.2h0.5c0,0,0.1,0,0.1-0.1V0.7c0,0,0-0.1-0.1-0.1H49.6z"></path><path fill="#FFFFFF" d="M53.9,0.7C53.9,0.7,53.9,0.6,53.9,0.7l-0.1-0.1c0,0,0,0-0.1,0l-0.8,1.6h0L52,0.7 c0,0,0,0-0.1,0h-0.1c0,0-0.1,0-0.1,0.1l-0.4,2.4c0,0,0,0.1,0.1,0.1h0.4c0,0,0.1,0,0.1-0.1L52.2,2h0l0.6,1.2c0,0,0,0,0.1,0h0.1 c0,0,0.1,0,0.1,0L53.6,2h0l0.2,1.1c0,0,0,0.1,0.1,0.1h0.4c0,0,0.1,0,0.1-0.1L53.9,0.7z"></path></g></g></svg>