<svg xmlns="http://www.w3.org/2000/svg" xmlns:xlink="http://www.w3.org/1999/xlink" preserveAspectRatio="xMidYMid" width="68.82" height="71.82" viewBox="0 0 45.88 47.88">
  <defs>
    <style>
      .cls-1 {
        fill: #ffc11e;
        fill-rule: evenodd;
      }
    </style>
  </defs>
  <path d="M45.655,1.633 L36.324,13.329 C38.261,14.959 39.573,17.308 39.838,19.962 L40.886,19.962 C41.437,19.962 41.883,20.410 41.883,20.961 C41.883,32.174 33.020,41.332 21.935,41.858 L21.935,45.939 L29.000,45.939 C29.551,45.939 29.915,46.344 29.915,46.895 C29.915,47.446 29.468,47.893 28.917,47.893 L12.959,47.893 C12.408,47.893 11.962,47.446 11.962,46.895 C11.962,46.344 12.449,45.939 13.000,45.939 L19.941,45.939 L19.941,41.858 C8.856,41.332 -0.007,32.174 -0.007,20.961 C-0.007,20.410 0.439,19.962 0.991,19.962 L2.038,19.962 C2.510,15.242 6.286,11.480 11.013,11.031 C11.494,5.976 15.760,2.008 20.938,2.008 C26.117,2.008 30.384,5.978 30.864,11.034 C32.233,11.164 33.523,11.569 34.675,12.198 L44.096,0.390 C44.439,-0.041 45.066,-0.112 45.498,0.231 C45.928,0.575 45.998,1.203 45.655,1.633 ZM29.915,12.981 C25.854,12.981 22.499,16.032 22.005,19.962 L37.824,19.962 C37.330,16.032 33.975,12.981 29.915,12.981 ZM2.014,21.958 C2.534,31.947 10.824,39.913 20.938,39.913 C31.052,39.913 39.342,31.947 39.862,21.958 L2.014,21.958 ZM4.052,19.962 L19.871,19.962 C19.378,16.032 16.022,12.981 11.962,12.981 C7.901,12.981 4.546,16.032 4.052,19.962 ZM20.938,4.003 C16.856,4.003 13.485,7.087 13.019,11.046 C16.514,11.416 19.474,13.599 20.942,16.633 C22.412,13.600 25.363,11.414 28.857,11.044 C28.390,7.086 25.019,4.003 20.938,4.003 Z" class="cls-1"/>
</svg>
