<svg xmlns="http://www.w3.org/2000/svg" xmlns:xlink="http://www.w3.org/1999/xlink" preserveAspectRatio="xMidYMid" width="72" height="71.955" viewBox="0 0 48 47.97">
  <defs>
    <style>
      .cls-1 {
        fill: #ffc11e;
        fill-rule: evenodd;
      }
    </style>
  </defs>
  <path d="M48.000,22.457 C48.000,26.367 44.845,29.490 41.738,30.891 L38.781,47.135 C38.695,47.609 38.281,47.955 37.798,47.955 L10.198,47.955 C9.715,47.955 9.301,47.609 9.215,47.135 L6.238,30.782 C3.238,29.264 -0.000,26.931 -0.000,22.457 C-0.000,18.012 3.372,14.339 7.696,13.855 C7.678,13.657 7.668,13.462 7.668,13.269 C7.668,9.268 10.866,6.013 14.798,6.013 C15.930,6.013 17.090,6.356 18.201,7.014 C19.409,5.135 22.110,2.089 27.659,0.081 C28.013,-0.047 28.408,0.034 28.684,0.290 C28.958,0.548 29.065,0.938 28.961,1.298 C28.950,1.333 28.021,4.692 29.489,7.193 C30.676,6.418 31.941,6.013 33.198,6.013 C37.131,6.013 40.330,9.268 40.330,13.269 C40.330,13.462 40.320,13.655 40.301,13.855 C44.626,14.339 48.000,18.012 48.000,22.457 ZM11.033,45.958 L36.963,45.958 L39.545,31.778 C37.939,32.410 36.245,32.981 34.186,32.981 C34.186,32.981 34.186,32.981 34.185,32.981 C32.875,32.981 31.570,32.750 30.199,32.274 C29.254,31.948 28.189,31.789 26.945,31.789 C25.361,31.789 23.657,32.042 21.854,32.308 C19.780,32.616 17.636,32.933 15.339,32.933 C12.865,32.933 10.596,32.531 8.444,31.738 L11.033,45.958 ZM39.330,15.799 C39.288,15.813 39.199,15.814 39.106,15.823 C38.797,15.823 38.506,15.681 38.316,15.438 C38.124,15.192 38.059,14.869 38.139,14.568 C38.270,14.078 38.330,13.667 38.330,13.269 C38.330,10.419 35.980,8.011 33.198,8.011 C31.822,8.011 30.653,8.745 29.915,9.362 C29.497,9.709 28.880,9.663 28.521,9.254 C26.678,7.152 26.542,4.414 26.711,2.617 C21.922,4.768 20.041,7.660 19.426,8.890 C19.292,9.157 19.045,9.351 18.753,9.417 C18.464,9.486 18.156,9.418 17.918,9.232 C16.871,8.422 15.821,8.011 14.798,8.011 C12.018,8.011 9.668,10.419 9.668,13.269 C9.668,13.672 9.729,14.083 9.857,14.568 C9.938,14.869 9.872,15.192 9.680,15.438 C9.490,15.680 9.199,15.823 8.891,15.823 C8.817,15.821 8.705,15.813 8.615,15.798 C4.991,15.799 2.000,18.786 2.000,22.457 C2.000,25.299 3.666,27.320 7.570,29.215 C9.989,30.389 12.457,30.936 15.339,30.936 C17.488,30.936 19.559,30.629 21.560,30.333 C23.439,30.055 25.214,29.792 26.945,29.792 C28.416,29.792 29.694,29.987 30.854,30.388 C32.012,30.789 33.102,30.984 34.186,30.984 C36.205,30.984 37.861,30.314 39.613,29.603 C39.819,29.520 40.024,29.439 40.228,29.357 C40.376,29.231 40.553,29.155 40.750,29.133 C43.326,28.038 46.000,25.544 46.000,22.457 C46.000,18.786 43.008,15.799 39.330,15.799 ZM36.001,24.987 C35.678,24.987 35.360,24.831 35.168,24.543 L33.168,21.546 C32.861,21.087 32.985,20.468 33.445,20.161 C33.906,19.856 34.526,19.979 34.832,20.439 L36.832,23.435 C37.139,23.894 37.015,24.513 36.555,24.819 C36.384,24.932 36.191,24.987 36.001,24.987 ZM25.999,16.998 C25.809,16.998 25.616,16.943 25.445,16.830 L22.445,14.833 C21.985,14.527 21.861,13.908 22.168,13.448 C22.474,12.989 23.094,12.866 23.555,13.171 L26.555,15.169 C27.015,15.475 27.139,16.094 26.832,16.554 C26.640,16.842 26.322,16.998 25.999,16.998 ZM13.555,25.818 C13.384,25.931 13.191,25.986 13.001,25.986 C12.678,25.986 12.360,25.830 12.168,25.541 C11.861,25.082 11.985,24.463 12.445,24.155 L15.445,22.159 C15.906,21.853 16.525,21.977 16.832,22.436 C17.139,22.895 17.015,23.515 16.555,23.820 L13.555,25.818 Z" class="cls-1"/>
</svg>
