<svg xmlns="http://www.w3.org/2000/svg" xmlns:xlink="http://www.w3.org/1999/xlink" preserveAspectRatio="xMidYMid" width="14" height="24" viewBox="0 0 14 24">
  <defs>
    <style>
      .cls-1 {
        fill: #808080;
        fill-rule: evenodd;
      }
    </style>
  </defs>
  <path d="M11.000,24.000 L3.000,24.000 C1.346,24.000 -0.000,22.654 -0.000,21.000 L-0.000,3.000 C-0.000,1.345 1.346,-0.000 3.000,-0.000 L11.000,-0.000 C12.654,-0.000 14.000,1.345 14.000,3.000 L14.000,21.000 C14.000,22.654 12.654,24.000 11.000,24.000 ZM12.000,3.000 C12.000,2.448 11.551,2.000 11.000,2.000 L3.000,2.000 C2.449,2.000 2.000,2.448 2.000,3.000 L2.000,21.000 C2.000,21.552 2.449,22.000 3.000,22.000 L11.000,22.000 C11.551,22.000 12.000,21.552 12.000,21.000 L12.000,3.000 ZM8.000,5.000 L6.000,5.000 C5.448,5.000 5.000,4.553 5.000,4.000 C5.000,3.447 5.448,3.000 6.000,3.000 L8.000,3.000 C8.552,3.000 9.000,3.447 9.000,4.000 C9.000,4.553 8.552,5.000 8.000,5.000 ZM7.020,18.066 L7.030,18.066 C7.583,18.066 8.030,18.514 8.030,19.067 C8.030,19.619 7.583,20.067 7.030,20.067 C6.477,20.067 6.025,19.619 6.025,19.067 C6.025,18.514 6.468,18.066 7.020,18.066 Z" class="cls-1"/>
</svg>
