<svg xmlns="http://www.w3.org/2000/svg" xmlns:xlink="http://www.w3.org/1999/xlink" preserveAspectRatio="xMidYMid" width="72" height="60" viewBox="0 0 48 40">
  <defs>
    <style>
      .cls-1 {
        fill: #ffc11e;
        fill-rule: evenodd;
      }
    </style>
  </defs>
  <path d="M47.000,21.000 L1.000,21.000 C0.733,21.000 0.477,20.894 0.290,20.704 C0.102,20.514 -0.003,20.257 -0.000,19.990 C0.108,8.407 10.202,0.000 24.000,0.000 C37.798,0.000 47.892,8.407 48.000,19.990 C48.003,20.257 47.898,20.514 47.710,20.704 C47.523,20.894 47.267,21.000 47.000,21.000 ZM24.000,2.000 C11.762,2.000 2.703,9.089 2.038,19.000 L45.962,19.000 C45.297,9.089 36.238,2.000 24.000,2.000 ZM25.195,8.019 C25.588,8.092 25.907,8.413 25.981,8.804 C26.115,9.509 25.509,10.115 24.805,9.981 C24.413,9.908 24.093,9.588 24.019,9.197 C23.885,8.492 24.491,7.886 25.195,8.019 ZM31.195,6.020 C31.588,6.093 31.907,6.413 31.981,6.805 C32.115,7.509 31.509,8.115 30.805,7.981 C30.413,7.908 30.093,7.588 30.019,7.196 C29.885,6.492 30.491,5.886 31.195,6.020 ZM37.195,11.019 C37.588,11.093 37.907,11.413 37.981,11.805 C38.115,12.509 37.509,13.115 36.805,12.981 C36.413,12.908 36.093,12.588 36.019,12.196 C35.885,11.492 36.491,10.885 37.195,11.019 ZM14.913,27.280 C14.225,26.622 13.574,26.000 12.000,26.000 C9.988,26.000 1.000,26.000 1.000,26.000 C0.447,26.000 -0.000,25.552 -0.000,25.000 C-0.000,24.448 0.447,24.000 1.000,24.000 C1.000,24.000 9.989,24.000 12.000,24.000 C14.377,24.000 15.485,25.061 16.296,25.835 C16.526,26.056 16.727,26.246 16.915,26.373 C17.586,26.819 19.347,27.704 21.170,26.258 C22.080,25.537 23.292,24.749 24.619,25.090 C26.179,25.489 27.200,27.248 28.343,29.956 C29.118,31.792 30.259,33.002 31.250,33.039 C32.050,33.054 32.899,32.282 33.646,30.828 C34.192,29.762 34.562,28.793 34.888,27.938 C35.693,25.825 36.390,24.000 39.000,24.000 L47.000,24.000 C47.553,24.000 48.000,24.448 48.000,25.000 C48.000,25.552 47.553,26.000 47.000,26.000 L39.000,26.000 C37.866,26.000 37.602,26.435 36.757,28.651 C36.715,28.761 36.667,28.883 36.622,29.000 L47.000,29.000 C47.274,29.000 47.537,29.114 47.727,29.313 C47.915,29.512 48.014,29.781 47.998,30.056 C47.808,33.495 45.748,40.000 39.323,40.000 L9.000,40.000 C2.360,40.000 0.211,33.498 0.002,30.061 C-0.015,29.786 0.083,29.516 0.271,29.315 C0.461,29.114 0.725,29.000 1.000,29.000 L18.275,29.000 C17.109,28.823 16.204,28.302 15.805,28.036 C15.471,27.813 15.188,27.542 14.913,27.280 ZM9.000,38.000 L39.323,38.000 C44.183,38.000 45.520,33.192 45.877,31.000 L36.000,31.000 C35.930,31.000 35.869,30.974 35.803,30.960 C35.685,31.215 35.561,31.474 35.425,31.740 C34.038,34.445 32.436,35.040 31.297,35.040 C31.256,35.040 31.215,35.039 31.175,35.038 C29.422,34.973 27.740,33.464 26.628,31.000 L2.136,31.000 C2.522,33.196 3.946,38.000 9.000,38.000 ZM25.702,29.000 C25.229,28.079 24.646,27.161 24.123,27.027 C23.763,26.937 23.194,27.207 22.412,27.826 C21.524,28.531 20.643,28.874 19.823,29.000 L25.702,29.000 Z" class="cls-1"/>
</svg>
