<svg xmlns="http://www.w3.org/2000/svg" xmlns:xlink="http://www.w3.org/1999/xlink" preserveAspectRatio="xMidYMid" width="71.865" height="72" viewBox="0 0 47.91 48">
  <defs>
    <style>
      .cls-1 {
        fill: #ffc11e;
        fill-rule: evenodd;
      }
    </style>
  </defs>
  <path d="M47.255,31.073 L1.322,47.938 C1.211,47.980 1.094,47.999 0.979,47.999 C0.719,47.999 0.463,47.898 0.273,47.706 C-0.002,47.431 -0.092,47.021 0.042,46.654 L14.831,6.262 C14.831,6.261 14.831,6.261 14.831,6.260 C14.831,6.259 14.832,6.258 14.833,6.257 L16.884,0.655 C17.027,0.261 17.401,-0.001 17.821,-0.001 C31.038,-0.001 47.910,16.898 47.910,30.135 C47.910,30.554 47.649,30.929 47.255,31.073 ZM13.089,41.488 L19.778,39.032 C19.445,38.342 18.913,37.773 18.220,37.410 C17.368,36.966 16.395,36.879 15.479,37.166 C14.563,37.454 13.814,38.081 13.370,38.933 C12.957,39.728 12.868,40.627 13.089,41.488 ZM14.493,12.993 L12.029,19.724 C12.796,20.035 13.635,20.086 14.436,19.834 C15.352,19.545 16.101,18.917 16.547,18.065 C16.991,17.214 17.078,16.240 16.790,15.322 C16.502,14.405 15.874,13.655 15.023,13.210 L14.493,12.993 ZM16.385,7.826 L15.180,11.117 L15.865,11.399 C17.271,12.129 18.247,13.296 18.695,14.722 C19.143,16.150 19.008,17.666 18.317,18.992 C17.625,20.317 16.459,21.293 15.035,21.742 C14.482,21.915 13.916,22.001 13.354,22.001 C12.666,22.001 11.985,21.870 11.336,21.616 L2.658,45.318 L11.203,42.181 C10.790,40.781 10.925,39.304 11.599,38.008 C12.291,36.682 13.457,35.705 14.883,35.259 C16.309,34.809 17.822,34.945 19.145,35.637 C20.281,36.232 21.137,37.189 21.646,38.346 L40.049,31.589 C37.050,21.486 27.141,11.535 16.385,7.826 ZM18.512,2.017 L17.072,5.949 C28.332,9.853 38.709,20.277 41.926,30.900 L45.896,29.442 C45.319,17.669 30.267,2.595 18.512,2.017 ZM25.943,33.000 C22.639,33.000 19.951,30.309 19.951,27.000 C19.951,23.690 22.639,20.999 25.943,20.999 C29.246,20.999 31.934,23.690 31.934,27.000 C31.934,30.309 29.246,33.000 25.943,33.000 ZM25.943,22.999 C23.740,22.999 21.948,24.793 21.948,27.000 C21.948,29.206 23.740,30.999 25.943,30.999 C28.146,30.999 29.937,29.206 29.937,27.000 C29.937,24.793 28.146,22.999 25.943,22.999 Z" class="cls-1"/>
</svg>
