<svg xmlns="http://www.w3.org/2000/svg" xmlns:xlink="http://www.w3.org/1999/xlink" preserveAspectRatio="xMidYMid" width="71.73" height="71.865" viewBox="0 0 47.82 47.91">
  <defs>
    <style>
      .cls-1 {
        fill: #ffc11e;
        fill-rule: evenodd;
      }
    </style>
  </defs>
  <path d="M47.060,1.970 L1.256,13.945 C1.173,13.967 1.088,13.978 1.004,13.978 C0.563,13.978 0.158,13.680 0.042,13.231 C-0.097,12.698 0.222,12.153 0.755,12.014 L46.558,0.039 C47.083,-0.098 47.633,0.219 47.772,0.753 C47.911,1.286 47.592,1.831 47.060,1.970 ZM3.811,16.988 L46.627,9.005 C47.165,8.898 47.687,9.261 47.788,9.804 C47.888,10.345 47.531,10.866 46.991,10.967 L4.174,18.951 C4.113,18.962 4.052,18.967 3.992,18.967 C3.521,18.967 3.103,18.632 3.013,18.151 C2.913,17.610 3.270,17.089 3.811,16.988 ZM16.937,21.961 C24.196,21.961 29.881,25.687 29.881,30.443 L29.881,39.424 C29.881,44.181 24.196,47.907 16.937,47.907 C9.678,47.907 3.993,44.181 3.993,39.424 L3.993,30.443 C3.993,25.687 9.678,21.961 16.937,21.961 ZM5.984,39.424 C5.984,42.940 11.000,45.911 16.937,45.911 C22.874,45.911 27.890,42.940 27.890,39.424 L27.890,35.010 C25.618,37.378 21.608,38.925 16.937,38.925 C12.266,38.925 8.256,37.378 5.984,35.010 L5.984,39.424 ZM16.937,36.929 C22.874,36.929 27.890,33.959 27.890,30.443 C27.890,26.928 22.874,23.957 16.937,23.957 C11.000,23.957 5.984,26.928 5.984,30.443 C5.984,33.959 11.000,36.929 16.937,36.929 ZM16.937,27.949 C18.585,27.949 19.924,28.841 19.924,29.944 C19.924,31.046 18.585,31.940 16.937,31.940 C15.285,31.940 13.950,31.046 13.950,29.944 C13.950,28.841 15.285,27.949 16.937,27.949 Z" class="cls-1"/>
</svg>
