<?xml version="1.0" encoding="utf-8"?>
<!-- Generator: Adobe Illustrator 15.0.0, SVG Export Plug-In . SVG Version: 6.00 Build 0)  -->
<!DOCTYPE svg PUBLIC "-//W3C//DTD SVG 1.1//EN" "http://www.w3.org/Graphics/SVG/1.1/DTD/svg11.dtd">
<svg version="1.1" id="Layer_1" xmlns="http://www.w3.org/2000/svg" xmlns:xlink="http://www.w3.org/1999/xlink" x="0px" y="0px"
	 width="135px" height="35px" viewBox="0 0 135 35" enable-background="new 0 0 135 35" xml:space="preserve">
<g>
	<path fill="#589442" d="M5.519,25.867L6.7,27.262c-0.824-0.607-1.675-1.33-2.556-2.268C1.575,22.266,0,18.588,0,14.537
		C0,9.97,2.004,5.869,5.189,3.078L3.471,19.339c-0.049,0.479-0.056,0.938-0.014,1.374C3.557,22.624,4.266,24.406,5.519,25.867z"/>
	<path fill="#589442" d="M23.419,24.471l-3.922,4.603c-0.606,0.718-3.433,4.252-4.23,5.927l-0.007-0.007
		c-0.715-1.503-3.581-5.204-4.188-5.92L7.15,24.471c-0.945-1.108-1.489-2.469-1.553-3.914c-0.036-0.322-0.029-0.658,0.007-0.996
		L7.343,3.12C7.4,2.512,7.895,2.054,8.496,2.054c0.007,0,0.007,0,0.014,0h0.008c0.586,0,1.066,0.479,1.059,1.066v15.054
		c0,0.078,0.007,0.164,0.036,0.229c0.101,0.457,0.508,0.801,0.995,0.801c0.573,0,1.03-0.465,1.03-1.029V1.346
		c0-0.358,0.144-0.701,0.395-0.944C12.289,0.144,12.633,0,12.983,0c0.708,0.007,1.274,0.573,1.274,1.274v16.899
		c0,0.564,0.458,1.022,1.023,1.022c0.008,0,0.008,0,0.008,0c0.565,0,1.03-0.466,1.03-1.03V1.41c0-0.78,0.616-1.403,1.389-1.403
		c0,0,0.007,0,0.014,0h0.021c0.344,0,0.673,0.137,0.91,0.38c0.25,0.243,0.386,0.579,0.386,0.937L19.031,17.55l0.007,0.616
		c0,0.564,0.458,1.03,1.031,1.03c0,0,0.007,0,0.015,0c0.551,0,1.009-0.458,1.009-1.022l0.008-0.123L21.093,3.178
		c0-0.301,0.115-0.58,0.329-0.794c0.208-0.215,0.501-0.337,0.802-0.337c0.516,0,0.945,0.394,0.995,0.909l1.753,16.604
		c0.007,0.072,0.015,0.15,0.015,0.236C25.086,21.494,24.529,23.176,23.419,24.471z"/>
	<path fill="#589442" d="M30.534,14.537c0,4.051-1.575,7.723-4.144,10.457c-0.852,0.908-1.675,1.617-2.47,2.204l1.138-1.339
		c1.453-1.696,2.19-3.871,2.076-6.126c-0.007-0.165-0.015-0.308-0.029-0.408L25.402,3.12C28.551,5.919,30.534,10,30.534,14.537z"/>
</g>
</svg>
